<svg width="17" height="17" viewBox="0 0 17 17" fill="none" xmlns="http://www.w3.org/2000/svg">
<g clip-path="url(#clip0_1_919)">
<path d="M3.41182 6.58359C2.68464 5.9956 1.91811 4.35603 2.51985 3.61184C3.13879 2.84639 4.8853 3.27401 5.61248 3.86199L8.09168 5.86666L13.2528 3.85445C13.5459 3.73982 13.8761 3.79236 14.1206 3.99008L15.3156 4.95631C15.541 5.13855 15.5293 5.48781 15.2923 5.65483L11.3002 8.46103L13.486 10.2284L15.3948 9.74644C15.5274 9.71297 15.6707 9.74446 15.777 9.83043L16.67 10.5525C16.8359 10.6866 16.8594 10.9272 16.727 11.0909C16.7047 11.1185 16.6781 11.1427 16.6493 11.1652L14.0866 12.9646L12.8635 15.8472C12.8497 15.8817 12.8294 15.9111 12.8071 15.9387C12.673 16.1046 12.4324 16.1281 12.2687 15.9957L11.3757 15.2736C11.2694 15.1877 11.2086 15.0541 11.2136 14.9175L11.2853 12.95L9.09741 11.1809L7.18901 15.672C7.07743 15.9404 6.73834 16.0249 6.51296 15.8427L5.31801 14.8765C5.07349 14.6788 4.9547 14.3647 5.00371 14.0562L5.89102 8.58826L3.41182 6.58359Z" fill="white"/>
</g>
<defs>
<clipPath id="clip0_1_919">
<rect width="16" height="16" fill="white" transform="translate(0.643555 0.262695)"/>
</clipPath>
</defs>
</svg>
