<svg width="17" height="17" viewBox="0 0 17 17" fill="none" xmlns="http://www.w3.org/2000/svg">
<g clip-path="url(#clip0_1_949)">
<path d="M11.3105 6.26261V4.26261C11.3105 2.78986 10.1166 1.59595 8.64384 1.59595C7.17108 1.59595 5.97717 2.78985 5.97717 4.26261V6.26261M3.03851 7.16392L2.63851 11.4306C2.52478 12.6437 2.46791 13.2503 2.66921 13.7188C2.84604 14.1304 3.15592 14.4707 3.54919 14.6851C3.99686 14.9293 4.60609 14.9293 5.82454 14.9293H11.4631C12.6816 14.9293 13.2908 14.9293 13.7385 14.6851C14.1318 14.4707 14.4416 14.1304 14.6185 13.7188C14.8198 13.2503 14.7629 12.6437 14.6492 11.4306L14.2492 7.16392C14.1531 6.13951 14.1051 5.62731 13.8747 5.24006C13.6718 4.899 13.3721 4.62602 13.0136 4.45584C12.6065 4.26262 12.092 4.26262 11.0631 4.26261L6.22454 4.26261C5.19564 4.26261 4.68118 4.26261 4.27412 4.45584C3.91562 4.62602 3.61585 4.899 3.41295 5.24006C3.18257 5.6273 3.13455 6.13951 3.03851 7.16392Z" stroke="#EEEEEE" stroke-width="1.5" stroke-linecap="square"/>
</g>
<defs>
<clipPath id="clip0_1_949">
<rect width="16" height="16" fill="white" transform="translate(0.643555 0.262695)"/>
</clipPath>
</defs>
</svg>
