<svg width="17" height="17" viewBox="0 0 17 17" fill="none" xmlns="http://www.w3.org/2000/svg">
<g clip-path="url(#clip0_1_979)">
<path d="M2.04346 2.39844C2.04346 1.35833 2.88909 0.512695 3.9292 0.512695H8.64355C9.68366 0.512695 10.5293 1.35833 10.5293 2.39844V8.05566H10.765C12.197 8.05566 13.3579 9.21657 13.3579 10.6486V11.5914C13.3579 11.9833 13.6732 12.2986 14.0651 12.2986C14.4569 12.2986 14.7722 11.9833 14.7722 11.5914V7.05386C13.959 6.84466 13.3579 6.1051 13.3579 5.22705V3.34131L12.415 2.39844C12.1557 2.13915 12.1557 1.71486 12.415 1.45557C12.6743 1.19628 13.0986 1.19628 13.3579 1.45557L15.6355 3.73319C15.9891 4.08677 16.1865 4.56704 16.1865 5.06794V5.46277V6.16992V7.11279V11.5914C16.1865 12.7641 15.2378 13.7129 14.0651 13.7129C12.8924 13.7129 11.9436 12.7641 11.9436 11.5914V10.6486C11.9436 9.99739 11.4162 9.46997 10.765 9.46997H10.5293V13.7129C11.0508 13.7129 11.4722 14.1342 11.4722 14.6558C11.4722 15.1773 11.0508 15.5986 10.5293 15.5986H2.04346C1.52193 15.5986 1.10059 15.1773 1.10059 14.6558C1.10059 14.1342 1.52193 13.7129 2.04346 13.7129V2.39844ZM3.9292 2.86987V5.69849C3.9292 5.95778 4.14135 6.16992 4.40063 6.16992H8.17212C8.43141 6.16992 8.64355 5.95778 8.64355 5.69849V2.86987C8.64355 2.61058 8.43141 2.39844 8.17212 2.39844H4.40063C4.14135 2.39844 3.9292 2.61058 3.9292 2.86987Z" fill="white"/>
</g>
<defs>
<clipPath id="clip0_1_979">
<rect width="16" height="16" fill="white" transform="translate(0.643555 0.262695)"/>
</clipPath>
</defs>
</svg>
