<svg width="15" height="14" viewBox="0 0 15 14" fill="none" xmlns="http://www.w3.org/2000/svg">
<g clip-path="url(#clip0_1_867)">
<path d="M1.92052 1.04443C1.02579 1.04443 0.29834 1.77188 0.29834 2.66662V3.47771H14.898V2.66662C14.898 1.77188 14.1705 1.04443 13.2758 1.04443H1.92052ZM14.898 5.91098H0.29834V10.7775C0.29834 11.6723 1.02579 12.3997 1.92052 12.3997H13.2758C14.1705 12.3997 14.898 11.6723 14.898 10.7775V5.91098ZM3.13716 9.15534H4.75934C4.98239 9.15534 5.16489 9.33784 5.16489 9.56089C5.16489 9.78394 4.98239 9.96643 4.75934 9.96643H3.13716C2.91411 9.96643 2.73161 9.78394 2.73161 9.56089C2.73161 9.33784 2.91411 9.15534 3.13716 9.15534ZM5.97598 9.56089C5.97598 9.33784 6.15847 9.15534 6.38152 9.15534H9.62589C9.84894 9.15534 10.0314 9.33784 10.0314 9.56089C10.0314 9.78394 9.84894 9.96643 9.62589 9.96643H6.38152C6.15847 9.96643 5.97598 9.78394 5.97598 9.56089Z" fill="white"/>
</g>
<defs>
<clipPath id="clip0_1_867">
<path d="M0.29834 0.233398H14.898V13.2109H0.29834V0.233398Z" fill="white"/>
</clipPath>
</defs>
</svg>
