<svg width="17" height="17" viewBox="0 0 17 17" fill="none" xmlns="http://www.w3.org/2000/svg">
<g clip-path="url(#clip0_1_1320)">
<path d="M13.4844 2.51294C13.0469 2.51294 9.98438 3.38794 9.98438 7.32544V10.3879C9.98438 11.3532 10.7691 12.1379 11.7344 12.1379H12.6094V15.6379C12.6094 16.1219 13.0004 16.5129 13.4844 16.5129C13.9684 16.5129 14.3594 16.1219 14.3594 15.6379V12.1379V9.07544V3.38794C14.3594 2.90396 13.9684 2.51294 13.4844 2.51294ZM3.85938 2.95044C3.85938 2.72622 3.69258 2.54028 3.46836 2.51567C3.24414 2.49106 3.04453 2.63872 2.99531 2.85474L2.1668 6.58169C2.12852 6.75396 2.10938 6.92896 2.10938 7.10395C2.10938 8.35903 3.06914 9.38989 4.29688 9.502V15.6379C4.29688 16.1219 4.68789 16.5129 5.17188 16.5129C5.65586 16.5129 6.04688 16.1219 6.04688 15.6379V9.502C7.27461 9.38989 8.23438 8.35903 8.23438 7.10395C8.23438 6.92896 8.21523 6.75396 8.17695 6.58169L7.34844 2.85474C7.29922 2.63599 7.09414 2.49106 6.87266 2.51567C6.65117 2.54028 6.48438 2.72622 6.48438 2.95044V6.61997C6.48438 6.76763 6.36406 6.88794 6.21641 6.88794C6.07695 6.88794 5.96211 6.7813 5.94844 6.64185L5.60664 2.91216C5.5875 2.68521 5.39883 2.51294 5.17188 2.51294C4.94492 2.51294 4.75625 2.68521 4.73711 2.91216L4.39805 6.64185C4.38437 6.7813 4.26953 6.88794 4.13008 6.88794C3.98242 6.88794 3.86211 6.76763 3.86211 6.61997V2.95044H3.85938ZM5.18008 7.10669H5.17188H5.16367L5.17188 7.08755L5.18008 7.10669Z" fill="white"/>
</g>
<defs>
<clipPath id="clip0_1_1320">
<rect width="16" height="16" fill="white" transform="translate(0.234375 0.562744)"/>
</clipPath>
</defs>
</svg>
